<svg width="373" height="324" viewBox="0 0 373 324" fill="none" xmlns="http://www.w3.org/2000/svg">
<path d="M397.02 323.139H247.951C247.775 323.139 247.607 323.069 247.482 322.945C247.358 322.821 247.288 322.653 247.288 322.477C247.288 322.301 247.358 322.133 247.482 322.009C247.607 321.884 247.775 321.815 247.951 321.815H397.02C397.195 321.815 397.364 321.884 397.488 322.009C397.612 322.133 397.682 322.301 397.682 322.477C397.682 322.653 397.612 322.821 397.488 322.945C397.364 323.069 397.195 323.139 397.02 323.139Z" fill="#CCCCCC"/>
<path d="M321.804 312.63L337.449 311.844L337.944 321.691L312.448 322.971C312.383 321.678 312.574 320.385 313.009 319.166C313.443 317.946 314.115 316.824 314.983 315.864C315.852 314.903 316.901 314.123 318.072 313.569C319.242 313.014 320.51 312.695 321.804 312.63Z" fill="#2F2E41"/>
<path d="M248.487 46V40.3423C245.272 40.2848 241.943 39.2779 240 37.8746L241.332 34.122C243.329 35.4677 246.848 36.5321 249.953 36.5321C253.892 36.5321 256.541 34.2371 256.541 31.0407C256.541 27.9593 254.38 26.0542 250.272 24.3729C244.614 22.1354 241.753 19.5526 241.753 14.6781C241.753 10.0272 244.709 6.49837 249.813 5.65771V0H252.62V5.43395C255.949 5.54583 258.222 6.44084 259.832 7.39657L258.443 11.0917C256.454 9.80568 254.134 9.13875 251.772 9.17379C247.5 9.17379 246.525 11.7533 246.525 13.994C246.525 16.906 247.943 18.3636 252.769 20.3869C258.484 22.7395 262 25.6546 262 30.6411C262 35.0682 258.949 39.214 253.237 40.1665V46H248.487Z" fill="#8E7AB5"/>
<path d="M22.3312 81.6463C17.9145 81.6463 13.597 80.3371 9.92467 77.8842C6.25232 75.4313 3.39007 71.9449 1.69987 67.8659C0.00967581 63.7868 -0.432557 59.2984 0.429098 54.9681C1.29075 50.6379 3.4176 46.6603 6.54068 43.5383C9.66376 40.4164 13.6428 38.2903 17.9746 37.4289C22.3065 36.5676 26.7965 37.0097 30.877 38.6993C34.9575 40.3888 38.4452 43.2501 40.899 46.9211C43.3528 50.5921 44.6625 54.9081 44.6625 59.3232C44.6558 65.2416 42.3009 70.9157 38.1144 75.1006C33.9279 79.2856 28.2518 81.6396 22.3312 81.6463ZM22.3312 37.9301C18.0986 37.9301 13.961 39.1848 10.4416 41.5355C6.92228 43.8862 4.17929 47.2273 2.55952 51.1364C0.939743 55.0455 0.515938 59.3469 1.34169 63.4967C2.16744 67.6466 4.20567 71.4584 7.19862 74.4503C10.1916 77.4422 14.0048 79.4796 18.1562 80.3051C22.3075 81.1306 26.6105 80.7069 30.521 79.0877C34.4314 77.4685 37.7738 74.7265 40.1253 71.2085C42.4769 67.6904 43.732 63.5543 43.732 59.3232C43.7256 53.6514 41.4688 48.2137 37.4568 44.2031C33.4447 40.1925 28.0051 37.9366 22.3312 37.9301Z" fill="#F2F2F2"/>
<path d="M173.998 68.6244C171.789 68.6244 169.63 67.9698 167.794 66.7433C165.958 65.5169 164.527 63.7737 163.682 61.7342C162.837 59.6947 162.616 57.4505 163.046 55.2853C163.477 53.1202 164.541 51.1314 166.102 49.5704C167.664 48.0094 169.653 46.9464 171.819 46.5157C173.985 46.0851 176.23 46.3061 178.27 47.1509C180.311 47.9957 182.055 49.4263 183.281 51.2618C184.508 53.0973 185.163 55.2553 185.163 57.4628C185.16 60.422 183.982 63.2591 181.889 65.3516C179.796 67.444 176.958 68.6211 173.998 68.6244ZM173.998 47.2314C171.973 47.2314 169.994 47.8315 168.311 48.9557C166.628 50.08 165.316 51.6779 164.541 53.5474C163.767 55.417 163.564 57.4742 163.959 59.4589C164.354 61.4436 165.329 63.2667 166.76 64.6976C168.192 66.1285 170.015 67.1029 172.001 67.4977C173.986 67.8925 176.044 67.6899 177.914 66.9155C179.785 66.1411 181.383 64.8297 182.508 63.1471C183.632 61.4646 184.233 59.4864 184.233 57.4628C184.23 54.7502 183.15 52.1496 181.232 50.2315C179.313 48.3134 176.711 47.2345 173.998 47.2314Z" fill="#F2F2F2"/>
<path d="M149.484 224.69L145.036 222.818L141.985 200.528H101.352L98.0442 222.726L94.0648 224.715C93.8744 224.811 93.7217 224.967 93.6315 225.16C93.5413 225.353 93.5188 225.57 93.5677 225.777C93.6166 225.984 93.734 226.169 93.901 226.301C94.0679 226.433 94.2745 226.505 94.4874 226.505H149.118C149.336 226.505 149.547 226.43 149.716 226.291C149.885 226.153 150.001 225.961 150.044 225.747C150.087 225.534 150.055 225.311 149.953 225.119C149.851 224.926 149.685 224.774 149.484 224.69Z" fill="#E6E6E6"/>
<path d="M221.693 203.493H22.0898C21.0425 203.491 20.039 203.073 19.2993 202.332C18.5596 201.591 18.1442 200.587 18.1442 199.54V171.404H225.639V199.54C225.638 200.587 225.223 201.591 224.483 202.332C223.744 203.073 222.74 203.491 221.693 203.493Z" fill="#CCCCCC"/>
<path d="M225.847 184.702H17.962V64.312C17.9634 63.0485 18.4662 61.8373 19.3599 60.9439C20.2536 60.0506 21.4653 59.548 22.7292 59.5466H221.08C222.344 59.5481 223.556 60.0506 224.449 60.9439C225.343 61.8373 225.846 63.0485 225.847 64.312V184.702Z" fill="#3F3D56"/>
<path d="M213.431 175.964H30.3781C29.4038 175.963 28.4696 175.575 27.7806 174.887C27.0916 174.198 26.704 173.264 26.7029 172.29V71.9582C26.704 70.9841 27.0916 70.0503 27.7806 69.3615C28.4696 68.6727 29.4037 68.2853 30.3781 68.2842H213.431C214.405 68.2853 215.34 68.6727 216.029 69.3615C216.718 70.0503 217.105 70.9841 217.106 71.9582V172.29C217.105 173.264 216.718 174.198 216.029 174.887C215.34 175.575 214.405 175.963 213.431 175.964Z" fill="white"/>
<path d="M211.708 226.738H34.4538C34.3304 226.738 34.2121 226.689 34.1248 226.601C34.0376 226.514 33.9886 226.396 33.9886 226.272C33.9886 226.149 34.0376 226.031 34.1248 225.944C34.2121 225.856 34.3304 225.807 34.4538 225.807H211.708C211.831 225.807 211.95 225.856 212.037 225.944C212.124 226.031 212.173 226.149 212.173 226.272C212.173 226.396 212.124 226.514 212.037 226.601C211.95 226.689 211.831 226.738 211.708 226.738Z" fill="#CCCCCC"/>
<path d="M196.234 163.498H47.5752C47.4518 163.498 47.3335 163.449 47.2462 163.362C47.159 163.274 47.11 163.156 47.11 163.033V91.8064C47.11 91.683 47.159 91.5647 47.2462 91.4775C47.3335 91.3903 47.4518 91.3413 47.5752 91.3413C47.6986 91.3413 47.8169 91.3903 47.9042 91.4775C47.9914 91.5647 48.0405 91.683 48.0405 91.8064V162.568H196.234C196.357 162.568 196.476 162.617 196.563 162.704C196.65 162.791 196.699 162.909 196.699 163.033C196.699 163.156 196.65 163.274 196.563 163.362C196.476 163.449 196.357 163.498 196.234 163.498Z" fill="#3F3D56"/>
<path d="M79.3371 158.382H65.816C65.4499 158.382 65.0988 158.236 64.8399 157.977C64.581 157.718 64.4354 157.368 64.4349 157.002V138.369C64.4354 138.003 64.581 137.653 64.8399 137.394C65.0988 137.135 65.4499 136.989 65.816 136.989H79.3371C79.7032 136.989 80.0542 137.135 80.3131 137.394C80.572 137.653 80.7177 138.003 80.7181 138.369V157.002C80.7177 157.368 80.572 157.718 80.3131 157.977C80.0542 158.236 79.7032 158.382 79.3371 158.382Z" fill="#8E7AB5"/>
<path d="M103.994 158.382H90.4733C90.1072 158.382 89.7562 158.236 89.4973 157.977C89.2384 157.719 89.0927 157.368 89.0923 157.002V120.697C89.0927 120.331 89.2384 119.98 89.4973 119.721C89.7562 119.463 90.1072 119.317 90.4733 119.317H103.994C104.361 119.317 104.712 119.463 104.97 119.721C105.229 119.98 105.375 120.331 105.375 120.697V157.002C105.375 157.368 105.229 157.719 104.97 157.977C104.712 158.236 104.361 158.382 103.994 158.382Z" fill="#8E7AB5"/>
<path d="M128.652 158.382H115.131C114.765 158.382 114.414 158.236 114.155 157.977C113.896 157.718 113.75 157.368 113.75 157.002V138.369C113.75 138.003 113.896 137.653 114.155 137.394C114.414 137.135 114.765 136.989 115.131 136.989H128.652C129.018 136.989 129.369 137.135 129.628 137.394C129.887 137.653 130.032 138.003 130.033 138.369V157.002C130.032 157.368 129.887 157.718 129.628 157.977C129.369 158.236 129.018 158.382 128.652 158.382Z" fill="#8E7AB5"/>
<path d="M153.309 158.382H139.788C139.43 158.39 139.084 158.255 138.825 158.008C138.566 157.761 138.416 157.422 138.407 157.064V113.659C138.416 113.301 138.566 112.961 138.825 112.714C139.084 112.467 139.43 112.333 139.788 112.341H153.309C153.667 112.333 154.013 112.467 154.272 112.714C154.531 112.961 154.681 113.301 154.69 113.659V157.064C154.681 157.422 154.531 157.761 154.272 158.008C154.013 158.255 153.667 158.39 153.309 158.382Z" fill="#8E7AB5"/>
<path d="M177.967 158.382H164.446C164.079 158.382 163.728 158.236 163.469 157.977C163.211 157.719 163.065 157.368 163.065 157.002V101.164C163.065 100.798 163.211 100.447 163.469 100.189C163.728 99.9299 164.079 99.7843 164.446 99.7839H177.967C178.333 99.7843 178.684 99.9299 178.943 100.189C179.202 100.447 179.347 100.798 179.348 101.164V157.002C179.347 157.368 179.202 157.719 178.943 157.977C178.684 158.236 178.333 158.382 177.967 158.382Z" fill="#8E7AB5"/>
<path d="M72.5766 131.408C74.1182 131.408 75.368 130.159 75.368 128.618C75.368 127.077 74.1182 125.828 72.5766 125.828C71.0349 125.828 69.7852 127.077 69.7852 128.618C69.7852 130.159 71.0349 131.408 72.5766 131.408Z" fill="#3F3D56"/>
<path d="M97.2339 113.271C98.7756 113.271 100.025 112.021 100.025 110.48C100.025 108.939 98.7756 107.69 97.2339 107.69C95.6923 107.69 94.4425 108.939 94.4425 110.48C94.4425 112.021 95.6923 113.271 97.2339 113.271Z" fill="#3F3D56"/>
<path d="M121.891 131.408C123.433 131.408 124.683 130.159 124.683 128.618C124.683 127.077 123.433 125.828 121.891 125.828C120.35 125.828 119.1 127.077 119.1 128.618C119.1 130.159 120.35 131.408 121.891 131.408Z" fill="#3F3D56"/>
<path d="M146.549 104.435C148.09 104.435 149.34 103.185 149.34 101.644C149.34 100.103 148.09 98.8538 146.549 98.8538C145.007 98.8538 143.757 100.103 143.757 101.644C143.757 103.185 145.007 104.435 146.549 104.435Z" fill="#3F3D56"/>
<path d="M171.206 94.2031C172.748 94.2031 173.998 92.9538 173.998 91.4127C173.998 89.8716 172.748 88.6223 171.206 88.6223C169.664 88.6223 168.415 89.8716 168.415 91.4127C168.415 92.9538 169.664 94.2031 171.206 94.2031Z" fill="#3F3D56"/>
<path d="M121.95 129.243L97.2339 110.737L72.8556 128.99L72.2974 128.246L97.2339 109.575L121.833 127.993L146.277 101.252L146.375 101.213L171.032 91.2815L171.38 92.1442L146.821 102.036L121.95 129.243Z" fill="#3F3D56"/>
<path d="M251.888 142.335C248.35 142.335 244.892 141.286 241.95 139.321C239.008 137.356 236.716 134.563 235.362 131.296C234.008 128.028 233.654 124.433 234.344 120.964C235.034 117.496 236.738 114.309 239.239 111.808C241.741 109.308 244.928 107.605 248.398 106.915C251.868 106.225 255.465 106.579 258.734 107.932C262.002 109.286 264.796 111.578 266.762 114.518C268.727 117.459 269.777 120.916 269.777 124.453C269.771 129.194 267.885 133.739 264.531 137.091C261.178 140.444 256.631 142.329 251.888 142.335ZM251.888 107.896C248.612 107.896 245.41 108.867 242.686 110.686C239.962 112.505 237.839 115.091 236.586 118.117C235.332 121.142 235.004 124.471 235.643 127.683C236.282 130.895 237.86 133.845 240.176 136.161C242.493 138.476 245.444 140.053 248.657 140.692C251.87 141.331 255.2 141.003 258.227 139.75C261.253 138.497 263.84 136.374 265.66 133.652C267.48 130.929 268.452 127.728 268.452 124.453C268.447 120.063 266.7 115.855 263.595 112.751C260.49 109.647 256.28 107.901 251.888 107.896Z" fill="#F2F2F2"/>
<path d="M316.761 121.305C325.748 121.305 333.033 114.022 333.033 105.038C333.033 96.0545 325.748 88.7717 316.761 88.7717C307.774 88.7717 300.489 96.0545 300.489 105.038C300.489 114.022 307.774 121.305 316.761 121.305Z" fill="#FFB8B8"/>
<path d="M318.449 298.2L310.759 300.81L297.022 272.399L308.373 268.545L318.449 298.2Z" fill="#FFB8B8"/>
<path d="M304.519 300.479L319.351 295.443L322.523 304.779L298.352 312.986C297.935 311.76 297.764 310.464 297.849 309.172C297.933 307.88 298.271 306.617 298.844 305.456C299.417 304.294 300.213 303.257 301.186 302.403C302.16 301.549 303.292 300.895 304.519 300.479Z" fill="#2F2E41"/>
<path d="M335.827 314.248L327.715 314.655L322.281 283.571L334.254 282.969L335.827 314.248Z" fill="#FFB8B8"/>
<path d="M287.551 210.967C288.279 210.32 288.856 209.521 289.241 208.627C289.626 207.732 289.81 206.765 289.78 205.791C289.751 204.818 289.508 203.863 289.07 202.994C288.631 202.125 288.007 201.362 287.242 200.76L294.976 178.392L283.056 181.437L277.539 202.211C276.612 203.564 276.214 205.209 276.42 206.835C276.625 208.461 277.42 209.956 278.655 211.035C279.889 212.114 281.476 212.704 283.116 212.691C284.756 212.679 286.334 212.065 287.551 210.967Z" fill="#FFB8B8"/>
<path d="M335.069 304.876C334.964 304.876 334.859 304.87 334.755 304.859L323.743 303.694C323.066 303.625 322.434 303.327 321.952 302.847C321.469 302.368 321.167 301.738 321.094 301.062L312.584 225.223L306.426 245.976L317.907 286.762C318.024 287.177 318.049 287.613 317.981 288.039C317.913 288.465 317.753 288.872 317.513 289.23C317.272 289.588 316.957 289.89 316.588 290.114C316.219 290.339 315.806 290.481 315.378 290.53L304.215 291.813C303.505 291.891 302.789 291.713 302.198 291.31C301.607 290.908 301.18 290.307 300.993 289.617L288.797 243.718C288.697 243.341 288.672 242.948 288.723 242.561L294.205 201.367L335.092 204.645L338.049 301.804C338.061 302.203 337.993 302.601 337.849 302.973C337.704 303.345 337.487 303.684 337.209 303.971C336.931 304.257 336.598 304.485 336.231 304.64C335.863 304.796 335.468 304.876 335.069 304.876Z" fill="#2F2E41"/>
<path d="M320.935 211.688C307.237 211.688 291.728 206.398 290.789 206.073L290.517 205.978L305.97 126.713L306.254 126.725C312.379 126.973 329.091 127.101 329.26 127.102L329.559 127.104L336.001 197.054L337.152 207.286L337.011 207.4C333.071 210.584 327.192 211.688 320.935 211.688Z" fill="#8E7AB5"/>
<path d="M296.188 204.838L286.522 200.946L291.449 141.378C291.567 139.909 292.014 138.486 292.756 137.213C293.499 135.94 294.518 134.851 295.738 134.024L300.824 130.564C300.68 130.075 300.654 129.558 300.749 129.057C300.843 128.556 301.055 128.084 301.367 127.681C301.68 127.278 302.083 126.954 302.544 126.737C303.006 126.52 303.512 126.415 304.022 126.431L305.479 126.478C305.756 126.292 306.083 126.193 306.417 126.195C306.751 126.198 307.076 126.301 307.35 126.492C307.625 126.682 307.835 126.951 307.953 127.263C308.072 127.575 308.093 127.916 308.015 128.24L307.695 134.551L296.188 204.838Z" fill="#2F2E41"/>
<path d="M291.31 194.159L278.69 193.628L282.778 167.34L286.166 142.605C286.233 141.716 286.499 140.855 286.946 140.084C287.393 139.313 288.008 138.653 288.745 138.154C289.483 137.654 290.324 137.327 291.206 137.198C292.087 137.069 292.987 137.141 293.837 137.408C295.16 137.824 296.296 138.691 297.044 139.86C297.792 141.028 298.105 142.422 297.927 143.798L294.496 170.599L291.31 194.159Z" fill="#2F2E41"/>
<path d="M311.294 205.749L311.208 205.484C311.149 205.302 305.462 187.065 314.979 165.302L319.751 141.575L323.829 126.677C323.906 126.41 324.043 126.166 324.231 125.962C324.418 125.758 324.651 125.601 324.91 125.502C325.214 125.397 325.543 125.384 325.855 125.464C326.167 125.544 326.449 125.714 326.665 125.953C329.507 125.119 332.563 125.424 335.184 126.805L340.912 129.821C342.185 130.491 343.2 131.565 343.798 132.874C344.395 134.184 344.541 135.654 344.212 137.055L336.384 170.449L340.19 201.641L311.294 205.749Z" fill="#2F2E41"/>
<path d="M319.628 192.892C320.597 192.997 321.576 192.889 322.498 192.574C323.42 192.26 324.262 191.748 324.964 191.073C325.666 190.398 326.212 189.578 326.563 188.67C326.913 187.762 327.061 186.787 326.994 185.816L344.721 172.689L338.525 169.752L319.41 179.595C317.785 179.815 316.297 180.623 315.228 181.867C314.159 183.11 313.584 184.702 313.611 186.341C313.638 187.98 314.265 189.552 315.374 190.759C316.483 191.967 317.997 192.726 319.628 192.892Z" fill="#FFB8B8"/>
<path d="M330.742 187.016L324.755 175.844L339.521 166.129L332.315 140.294C332.026 139.259 331.954 138.176 332.103 137.113C332.252 136.049 332.618 135.028 333.18 134.112C333.741 133.197 334.485 132.407 335.366 131.792C336.246 131.176 337.244 130.749 338.298 130.537C340.158 130.166 342.091 130.483 343.736 131.429C345.381 132.375 346.626 133.885 347.242 135.679L356.964 164.247C357.165 164.836 357.176 165.472 356.996 166.068C356.817 166.663 356.455 167.187 355.963 167.567L330.742 187.016Z" fill="#2F2E41"/>
<path d="M319.636 107.82C317.801 108.529 315.899 106.941 314.798 105.311C313.697 103.681 312.683 101.719 310.799 101.154C308.225 100.381 305.734 102.675 303.053 102.868C300.026 103.085 297.384 100.467 296.517 97.5598C295.649 94.6525 296.13 91.5352 296.616 88.5405L297.842 91.8152C297.509 90.6852 297.472 89.4886 297.733 88.34C297.995 87.1914 298.548 86.1291 299.337 85.2548L300.029 90.3301C299.972 89.6204 300.056 88.9065 300.276 88.2294C300.496 87.5522 300.848 86.9251 301.311 86.3841C301.774 85.8431 302.339 85.3987 302.974 85.0766C303.61 84.7545 304.302 84.561 305.012 84.5071L305.651 87.4758C308.911 86.2566 312.2 85.0297 315.642 84.5112C319.083 83.9926 322.734 84.2294 325.828 85.8228C330.456 88.2062 333.184 93.3258 333.945 98.4741C334.707 103.622 333.783 108.859 332.733 113.957C332.468 115.239 332.031 116.72 330.803 117.176C329.699 117.585 328.428 116.889 327.81 115.889C327.265 114.84 326.991 113.672 327.012 112.49C326.917 110.715 326.896 108.882 326.18 107.256C325.465 105.629 323.831 104.247 322.065 104.458C320.3 104.668 319.024 107.056 320.219 108.372L319.636 107.82Z" fill="#2F2E41"/>
</svg>
